# AST/ASF file generated using VICON BodyLanguage
# -----------------------------------------------
:version 1.10
:name VICON
:units
  mass 1.0
  length 0.45
  angle deg
:documentation
   .ast/.asf automatically generated from VICON data using
   VICON BodyBuilder and BodyLanguage model FoxedUp or BRILLIANT.MOD
:root
   order TX TY TZ RX RY RZ
   axis XYZ
   position 0 0 0  
   orientation 0 0 0 
:bonedata
  begin
     id 1 
     name lhipjoint
     direction 0.578396 -0.714046 0.394458 
     length 2.21935 
     axis 0 0 0  XYZ
  end
  begin
     id 2 
     name lfemur
     direction 0.34202 -0.939693 0  
     length 6.39105  
     axis 0 0 20  XYZ
    dof rx ry rz
    limits (-160.0 20.0)
           (-70.0 70.0)
           (-60.0 70.0)
  end
  begin
     id 3 
     name ltibia
     direction 0.34202 -0.939693 0   
     length 6.99037   
     axis 0 0 20   XYZ
    dof rx
    limits (-10.0 170.0)
  end
  begin
     id 4 
     name lfoot
     direction 0.0582372 -0.160005 0.985397   
     length 2.06111   
     axis -90 7.62852e-016 20   XYZ
    dof rx rz
    limits (-45.0 90.0)
           (-70.0 20.0)
  end
  begin
     id 5 
     name ltoes
     direction 1.53556e-011 -4.21875e-011 1   
     length 1.04074   
     axis -90 7.62852e-016 20   XYZ
    dof rx
    limits (-90.0 20.0)
  end
  begin
     id 6 
     name rhipjoint
     direction -0.558179 -0.726269 0.40121   
     length 2.182  
     axis 0 0 0  XYZ 
  end
  begin
     id 7 
     name rfemur
     direction -0.34202 -0.939693 0   
     length 6.51172   
     axis 0 0 -20   XYZ
    dof rx ry rz
    limits (-160.0 20.0)
           (-70.0 70.0)
           (-70.0 60.0)
  end
  begin
     id 8 
     name rtibia
     direction -0.34202 -0.939693 0   
     length 7.02607   
     axis 0 0 -20   XYZ
    dof rx
    limits (-10.0 170.0)
 end
 begin
     id 9 
     name rfoot
     direction -0.0788856 -0.216737 0.973038   
     length 1.96734  
     axis -90 -7.62852e-016 -20   XYZ
    dof rx rz
    limits (-45.0 90.0)
           (-20.0 70.0)
  end
  begin
     id 10 
     name rtoes
     direction -1.53567e-011 -4.21783e-011 1   
     length 0.990825   
     axis -90 -7.62852e-016 -20   XYZ
    dof rx
    limits (-90.0 20.0)
  end
  begin
     id 11 
     name lowerback
     direction 0.00668177 0.999323 -0.0361741   
     length 1.7655   
     axis 0 0 0   XYZ
    dof rx ry rz
    limits (-20.0 45.0)
           (-30.0 30.0)
           (-30.0 30.0)
  end
  begin
     id 12 
     name upperback
     direction -0.00222086 0.99851 0.0545167   
     length 1.74912   
     axis 0 0 0   XYZ
    dof rx ry rz
    limits (-20.0 45.0)
           (-30.0 30.0)
           (-30.0 30.0)
  end
  begin
     id 13 
     name thorax
     direction -0.00733971 0.997496 0.0703443   
     length 1.75715   
     axis 0 0 0   XYZ
    dof rx ry rz
    limits (-20.0 45.0)
           (-30.0 30.0)
           (-30.0 30.0)
  end
  begin
     id 14 
     name lowerneck
     direction 0.0279797 0.994795 0.0979765   
     length 1.46939   
     axis 0 0 0   XYZ
    dof rx ry rz
    limits (-20.0 45.0)
           (-30.0 30.0)
           (-30.0 30.0)
  end
  begin
     id 15 
     name upperneck
     direction 0.00339187 0.976776 -0.214238   
     length 1.48018   
     axis 0 0 0   XYZ
    dof rx ry rz
    limits (-20.0 45.0)
           (-30.0 30.0)
           (-30.0 30.0)
  end
  begin
     id 16
     name head
     direction -0.00263506 0.996603 -0.0823096  
     length 1.4976  
     axis 0 0 0   XYZ
    dof rx ry rz
    limits (-20.0 45.0)
           (-30.0 30.0)
           (-30.0 30.0)
  end
  begin
     id 17 
     name lclavicle
     direction 0.894044 0.44508 -0.0508781  
     length 3.03024  
     axis 0 0 0   XYZ
    dof ry rz
    limits (-20.0 10.0)
           (0.0 20.0)
  end
  begin
     id 18 
     name lhumerus
     direction 1 -4.48961e-011 -2.39475e-018   
     length 4.4661   
     axis 180 -30 -90   XYZ
    dof rx ry rz
    limits (-60.0 90.0)
           (-90.0 90.0)
           (-90.0 90.0)
  end
  begin
     id 19
     name lradius
     direction 1 -4.48961e-011 9.29328e-028   
     length 3.41414   
     axis 180 -30 -90   XYZ
    dof rx
    limits (-10.0 170.0)
  end
  begin
     id 20
     name lwrist
     direction 1 -4.48985e-011 1.53461e-026   
     length 1.70707   
     axis -1.09697e-014 90 90   XYZ
    dof ry
    limits (-180.0 0.0)
 end
  begin
     id 21 
     name lhand
     direction 1 -4.48966e-011 3.06923e-026   
     length 0.328298   
     axis -1.95843e-014 90 90   XYZ
    dof rx rz
    limits (-90.0 90.0)
           (-45.0 45.0)
  end
  begin
     id 22 
     name lfingers
     direction 1 -4.48893e-011 6.13845e-026   
     length 0.264682   
     axis -3.91686e-014 90 90   XYZ
    dof rx
    limits (0.0 90.0)
  end
  begin
     id 23
     name lthumb
     direction 0.707107 -6.34876e-011 0.707107   
     length 0.380032   
     axis -90 45 2.85299e-015   XYZ
    dof rx rz
    limits (-45.0 45.0)
           (-45.0 45.0)
  end
  begin
     id 24 
     name rclavicle
     direction -0.936955 0.347862 -0.0332887   
     length 3.26927  
     axis 0 0 0   XYZ 
    dof ry rz
    limits (-10.0 20.0)
           (-20.0 0.0)
  end
  begin
     id 25 
     name rhumerus
     direction -1 -4.4896e-011 1.78637e-018  
     length 4.40431   
     axis 180 30 90   XYZ
    dof rx ry rz
    limits (-90.0 60.0)
           (-90.0 90.0)
           (-90.0 90.0)
  end
  begin
     id 26 
     name rradius
     direction -1 -4.48955e-011 9.34036e-027   
     length 3.04688   
     axis 180 30 90   XYZ
    dof rx
    limits (-10.0 170.0)
  end
  begin
     id 27 
     name rwrist
     direction -1 -4.49011e-011 1.53461e-026   
     length 1.52344   
     axis -1.09697e-014 -90 -90   XYZ
    dof ry
    limits (-180.0 0.0)
  end
  begin
     id 28
     name rhand
     direction -1 -4.48834e-011 3.06923e-026   
     length 0.500489   
     axis -1.95843e-014 -90 -90   XYZ
    dof rx rz
    limits (-90.0 90.0)
           (-45.0 45.0)
  end
  begin
     id 29
     name rfingers
     direction -1 -4.48967e-011 6.13845e-026   
     length 0.403507   
     axis -3.91686e-014 -90 -90   XYZ
    dof rx
    limits (0.0 90.0)
  end
  begin
     id 30
     name rthumb
     direction -0.707107 -6.34826e-011 0.707107   
     length 0.579358   
     axis -90 -45 -2.85299e-015   XYZ
    dof rx rz
    limits (-45.0 45.0)
           (-45.0 45.0)
  end
:hierarchy
  begin
    root lhipjoint rhipjoint lowerback
    lhipjoint lfemur
    lfemur ltibia
    ltibia lfoot
    lfoot ltoes
    rhipjoint rfemur
    rfemur rtibia
    rtibia rfoot
    rfoot rtoes
    lowerback upperback
    upperback thorax
    thorax lowerneck lclavicle rclavicle
    lowerneck upperneck
    upperneck head
    lclavicle lhumerus
    lhumerus lradius
    lradius lwrist
    lwrist lhand lthumb
    lhand lfingers
    rclavicle rhumerus
    rhumerus rradius
    rradius rwrist
    rwrist rhand rthumb
    rhand rfingers
  end

#!OML:ASF H:\IndianDance\Patient Classification 1\Patient 1\Session 1\dancer.ASF
:FULLY-SPECIFIED
:DEGREES
495
root -2.45868 13.6853 13.5058 186.182 -5.72787 -175.287
lowerback 6.04475 -1.04831 -5.16523
upperback -6.22953 -2.12495 1.00166
thorax -9.83656 -0.720571 4.29592
lowerneck -8.16042 -13.3267 -9.91804
upperneck 13.1759 -20.1304 13.785
head 7.81935 -9.60371 3.78985
rclavicle -5.1684e-015 -4.77083e-015
rhumerus 7.41167 -30.7167 -75.9979
rradius 56.3059
rwrist -85.3328
rhand -9.30037 -7.64429
rfingers 7.12502
rthumb 16.6573 -36.9495
lclavicle -5.1684e-015 -4.77083e-015
lhumerus -6.41636 -59.0751 37.0026
lradius 120.859
lwrist 75.3832
lhand -15.8077 33.9519
lfingers 7.12502
lthumb 10.3857 63.6754
rfemur -47.1882 -15.2589 29.7059
rtibia 71.9759
rfoot -24.5589 -8.24706
rtoes 14.6061
lfemur -26.7465 32.1682 -14.2893
ltibia 74.9928
lfoot -26.2579 2.40941
ltoes -22.664
496
root -2.51202 13.6833 13.5136 186.325 -4.97852 -175.176
lowerback 5.83401 -1.02524 -5.05477
upperback -6.27067 -2.08646 0.945574
thorax -9.76494 -0.718489 4.16166
lowerneck -8.18229 -13.2864 -9.74148
upperneck 13.1606 -20.0946 13.7376
head 7.79009 -9.58704 3.75508
rclavicle 1.39149e-015 -4.21423e-014
rhumerus 7.65733 -29.9161 -75.5075
rradius 56.1661
rwrist -85.3743
rhand -11.0756 -8.52743
rfingers 7.12502
rthumb 14.9477 -37.968
lclavicle 1.39149e-015 -4.21423e-014
lhumerus -6.66838 -59.1245 37.4114
lradius 120.714
lwrist 75.4076
lhand -16.2735 34.8398
lfingers 7.12502
lthumb 9.93628 64.5853
rfemur -47.0696 -14.9455 29.7476
rtibia 71.5042
rfoot -24.9494 -8.59694
rtoes 14.4511
lfemur -26.9215 32.33 -14.6893
ltibia 75.0995
lfoot -26.1044 3.01319
ltoes -22.5715
497
root -2.56342 13.6859 13.5209 186.406 -4.31829 -175.057
lowerback 5.67948 -1.02072 -4.97831
upperback -6.28346 -2.07368 0.908527
thorax -9.69106 -0.724493 4.07184
lowerneck -8.19583 -13.2559 -9.60141
upperneck 13.1089 -20.0639 13.7148
head 7.75484 -9.57324 3.73342
rclavicle 6.90777e-015 2.54444e-014
rhumerus 7.91013 -29.1302 -74.9802
rradius 56.0734
rwrist -85.4419
rhand -12.6613 -9.50556
rfingers 7.12502
rthumb 13.4197 -39.0533
lclavicle 6.90777e-015 2.54444e-014
lhumerus -6.94626 -59.1428 37.8163
lradius 120.6
lwrist 75.4467
lhand -16.6314 35.3999
lfingers 7.12502
lthumb 9.59102 65.1616
rfemur -46.825 -14.6364 29.7155
rtibia 70.9576
rfoot -25.2931 -8.82961
rtoes 14.0819
lfemur -27.1168 32.4267 -14.8909
ltibia 75.3602
lfoot -25.6354 3.17872
ltoes -22.9585
498
root -2.61315 13.693 13.5276 186.41 -3.74573 -174.924
lowerback 5.5935 -1.04446 -4.91451
upperback -6.26718 -2.09796 0.885141
thorax -9.62106 -0.745495 4.01031
lowerneck -8.19885 -13.224 -9.49099
upperneck 13.0332 -20.0269 13.7137
head 7.71476 -9.55709 3.72469
rclavicle 1.39646e-014 -1.27222e-014
rhumerus 8.17533 -28.3657 -74.4589
rradius 56.0222
rwrist -85.4897
rhand -14.0578 -10.6002
rfingers 7.12502
rthumb 12.0734 -40.2319
lclavicle 1.39646e-014 -1.27222e-014
lhumerus -7.27269 -59.121 38.2045
lradius 120.515
lwrist 75.4245
lhand -16.8091 35.6489
lfingers 7.12502
lthumb 9.41952 65.4184
rfemur -46.4697 -14.3802 29.6518
rtibia 70.367
rfoot -25.5205 -9.04571
rtoes 13.2394
lfemur -27.2866 32.4609 -14.8583
ltibia 75.7503
lfoot -24.8705 2.82283
ltoes -23.7106
499
root -2.66186 13.7051 13.5335 186.338 -3.25225 -174.782
lowerback 5.57311 -1.08427 -4.87222
upperback -6.22285 -2.14285 0.882455
thorax -9.55576 -0.772539 3.9872
lowerneck -8.2154 -14.1753 -9.29532
upperneck 13.2374 -19.7753 13.4682
head 7.72073 -8.7846 3.72478
rclavicle 5.86415e-015 -1.59028e-015
rhumerus 8.44453 -27.6151 -73.8879
rradius 56.012
rwrist -85.5077
rhand -15.3118 -11.8313
rfingers 7.12502
rthumb 10.864 -41.5303
lclavicle 5.86415e-015 -1.59028e-015
lhumerus -7.60409 -59.0673 38.5721
lradius 120.457
lwrist 75.3125
lhand -16.8457 35.644
lfingers 7.12502
lthumb 9.38425 65.4151
rfemur -46.0318 -14.1895 29.5568
rtibia 69.763
rfoot -25.6479 -9.12793
rtoes 12.5047
lfemur -27.3973 32.4549 -14.6008
ltibia 76.228
lfoot -23.8316 1.98749
ltoes -24.9347
500
root -2.71024 13.7223 13.5381 186.196 -2.82443 -174.638
lowerback 5.61402 -1.14191 -4.80629
upperback -6.15914 -2.20993 0.8685
thorax -9.50417 -0.810957 3.94319
lowerneck -8.17608 -14.1515 -9.28865
upperneck 13.1226 -19.7452 13.5157
head 7.67746 -8.77553 3.74738
rclavicle -3.33958e-014 1.35174e-014
rhumerus 8.69685 -26.8726 -73.3002
rradius 56.0476
rwrist -85.4727
rhand -16.5082 -13.1987
rfingers 7.12502
rthumb 9.70983 -42.9549
lclavicle -3.33958e-014 1.35174e-014
lhumerus -7.91386 -58.9965 38.8504
lradius 120.432
lwrist 75.0933
lhand -16.7589 35.4758
lfingers 7.12502
lthumb 9.46794 65.2431
rfemur -45.5269 -14.0882 29.445
rtibia 69.1568
rfoot -25.6656 -9.09813
rtoes 11.8805
lfemur -27.4353 32.4242 -14.1353
ltibia 76.7581
lfoot -22.5756 0.548934
ltoes -26.0045
